# xmcd
#
# Track frame offsets:
#	150
#	13190
#	28225
#	42862
#	63082
#	81812
#	95087
#	114700
#	128275
#
# Disc length: 1844 seconds
#
# Revision: 0
# Processed by: cddbd v1.5.1PL2 Copyright (c) Steve Scherf et al.
# Submitted via: dBpowerAMP V4.0
#
DISCID=6d073209
DTITLE=Cliff Free - Souther Sons Volume 1
DYEAR=1996
DGENRE=Country
TTITLE0=Blind By The Light
TTITLE1=I Got The Girl
TTITLE2=Hello Miss Whiskey
TTITLE3=Heartaches and Misery
TTITLE4=I Fall To Pieces
TTITLE5=Three Strikes
TTITLE6=If I Stayed By Your Side
TTITLE7=Small Town Lovin'
TTITLE8=Record Player
EXTD=
EXTT0=
EXTT1=
EXTT2=
EXTT3=
EXTT4=
EXTT5=
EXTT6=
EXTT7=
EXTT8=
PLAYORDER=
